<svg width="3113" height="2237" xmlns="http://www.w3.org/2000/svg" xmlns:xlink="http://www.w3.org/1999/xlink" xml:space="preserve" overflow="hidden"><g transform="translate(-161 -311)"><text font-family="Arial,Arial_MSFontService,sans-serif" font-weight="700" font-size="128" transform="matrix(1 0 0 1 265.833 475)">Trafo Ist</text><text font-family="Arial,Arial_MSFontService,sans-serif" font-weight="700" font-size="128" transform="matrix(1 0 0 1 772.864 475)">-</text><text font-family="Arial,Arial_MSFontService,sans-serif" font-weight="700" font-size="128" transform="matrix(1 0 0 1 815.833 475)">Zustand/Eigenstrom X</text><path d="M2184.5 811.5C2184.5 749.092 2235.76 698.5 2299 698.5 2362.24 698.5 2413.5 749.092 2413.5 811.5 2413.5 873.908 2362.24 924.5 2299 924.5 2235.76 924.5 2184.5 873.908 2184.5 811.5Z" stroke="#000000" stroke-width="6.875" stroke-linejoin="round" stroke-miterlimit="10" fill="none" fill-rule="evenodd"/><path d="M2184.5 950.5C2184.5 888.092 2235.76 837.5 2299 837.5 2362.24 837.5 2413.5 888.092 2413.5 950.5 2413.5 1012.91 2362.24 1063.5 2299 1063.5 2235.76 1063.5 2184.5 1012.91 2184.5 950.5Z" stroke="#000000" stroke-width="6.875" stroke-linejoin="round" stroke-miterlimit="10" fill="none" fill-rule="evenodd"/><rect x="418.5" y="1390.5" width="2378" height="117" stroke="#000000" stroke-width="6.875" stroke-linejoin="round" stroke-miterlimit="10" fill="none"/><path d="M2475.5 807.5C2475.5 745.092 2526.76 694.5 2590 694.5 2653.24 694.5 2704.5 745.092 2704.5 807.5 2704.5 869.908 2653.24 920.5 2590 920.5 2526.76 920.5 2475.5 869.908 2475.5 807.5Z" stroke="#000000" stroke-width="6.875" stroke-linejoin="round" stroke-miterlimit="10" fill="none" fill-rule="evenodd"/><path d="M2475.5 955.5C2475.5 893.092 2526.76 842.5 2590 842.5 2653.24 842.5 2704.5 893.092 2704.5 955.5 2704.5 1017.91 2653.24 1068.5 2590 1068.5 2526.76 1068.5 2475.5 1017.91 2475.5 955.5Z" stroke="#000000" stroke-width="6.875" stroke-linejoin="round" stroke-miterlimit="10" fill="none" fill-rule="evenodd"/><text font-family="Arial,Arial_MSFontService,sans-serif" font-weight="700" font-size="92" transform="matrix(1 0 0 1 359.767 1316)">Sammelschiene</text><path d="M2295.5 594.5 2295.5 698.437" stroke="#000000" stroke-width="6.875" stroke-linejoin="round" stroke-miterlimit="10" fill="#BBE0E3" fill-rule="evenodd"/><path d="M2597.5 1068.5 2597.5 1224.41" stroke="#000000" stroke-width="6.875" stroke-linejoin="round" stroke-miterlimit="10" fill="#BBE0E3" fill-rule="evenodd"/><path d="M2299.5 1063.5 2299.5 1219.41" stroke="#000000" stroke-width="6.875" stroke-linejoin="round" stroke-miterlimit="10" fill="#BBE0E3" fill-rule="evenodd"/><path d="M2593.5 592.5 2593.5 696.437" stroke="#000000" stroke-width="6.875" stroke-linejoin="round" stroke-miterlimit="10" fill="#BBE0E3" fill-rule="evenodd"/><text font-family="Arial,Arial_MSFontService,sans-serif" font-weight="400" font-size="83" transform="matrix(1 0 0 1 279.36 607)">∑ = Smart Meter</text><text font-family="Arial,Arial_MSFontService,sans-serif" font-weight="400" font-size="83" transform="matrix(1 0 0 1 279.36 706)">RS = Riedgrabenstrasse</text><text font-family="Arial,Arial_MSFontService,sans-serif" font-weight="400" font-size="83" transform="matrix(1 0 0 1 279.36 805)">HS = Hochspannung</text><text font-family="Arial,Arial_MSFontService,sans-serif" font-weight="400" font-size="83" transform="matrix(1 0 0 1 279.36 904)">NS = Niederspannung</text><text font-family="Arial,Arial_MSFontService,sans-serif" font-weight="400" font-size="83" transform="matrix(1 0 0 1 475.297 1003)">= Sicherung (A)</text><text font-family="Cambria Math,Cambria Math_MSFontService,sans-serif" font-weight="400" font-size="96" transform="matrix(1 0 0 1 2737.27 1163)">∑</text><text font-family="Cambria Math,Cambria Math_MSFontService,sans-serif" font-weight="400" font-size="96" transform="matrix(1 0 0 1 2085.96 1163)">∑</text><text font-family="Arial,Arial_MSFontService,sans-serif" font-weight="700" font-size="92" transform="matrix(1 0 0 1 2763.97 910)">630 kVA</text><text font-family="Arial,Arial_MSFontService,sans-serif" font-weight="700" font-size="92" transform="matrix(1 0 0 1 1789.21 906)">630 kVA</text><path d="M0 0 0.000360892 389.764" stroke="#000000" stroke-width="6.875" stroke-linejoin="round" stroke-miterlimit="10" fill="#BBE0E3" fill-rule="evenodd" transform="matrix(-1 0 0 1 531.5 1504.5)"/><path d="M0 0 0.000360892 389.764" stroke="#000000" stroke-width="6.875" stroke-linejoin="round" stroke-miterlimit="10" fill="#BBE0E3" fill-rule="evenodd" transform="matrix(-1 0 0 1 1420.5 1504.5)"/><path d="M0 0 0.000360892 389.764" stroke="#000000" stroke-width="6.875" stroke-linejoin="round" stroke-miterlimit="10" fill="#BBE0E3" fill-rule="evenodd" transform="matrix(-1 0 0 1 816.5 1506.5)"/><path d="M0 0 0.000360892 623.622" stroke="#000000" stroke-width="6.875" stroke-linejoin="round" stroke-miterlimit="10" fill="#BBE0E3" fill-rule="evenodd" transform="matrix(-1 0 0 1 3125.5 1444.5)"/><text font-family="Cambria Math,Cambria Math_MSFontService,sans-serif" font-weight="400" font-size="96" transform="matrix(1 0 0 1 1814.03 1868)">∑</text><text font-family="Cambria Math,Cambria Math_MSFontService,sans-serif" font-weight="400" font-size="96" transform="matrix(1 0 0 1 976.15 1879)">∑</text><text font-family="Arial,Arial_MSFontService,sans-serif" font-weight="400" font-size="73" transform="matrix(1 0 0 1 831.238 2315)">RS</text><text font-family="Arial,Arial_MSFontService,sans-serif" font-weight="400" font-size="73" transform="matrix(1 0 0 1 831.238 2403)">13</text><text font-family="Arial,Arial_MSFontService,sans-serif" font-weight="400" font-size="73" transform="matrix(1 0 0 1 840.889 1701)">RS</text><text font-family="Arial,Arial_MSFontService,sans-serif" font-weight="400" font-size="73" transform="matrix(1 0 0 1 840.889 1789)">7/9/11</text><rect x="418.5" y="2002.5" width="2378" height="117" stroke="#000000" stroke-width="6.875" stroke-linejoin="round" stroke-miterlimit="10" fill="none"/><text font-family="Arial,Arial_MSFontService,sans-serif" font-weight="700" font-size="92" transform="matrix(1 0 0 1 2460.23 2248)">Sammelschiene</text><text font-family="Arial,Arial_MSFontService,sans-serif" font-weight="400" font-size="96" transform="matrix(1 0 0 1 460.364 1479)">1a       1b       2a       2b       3        4        5        6      7 </text><text font-family="Arial,Arial_MSFontService,sans-serif" font-weight="400" font-size="73" transform="matrix(1 0 0 1 1681.56 1715)">RS</text><text font-family="Arial,Arial_MSFontService,sans-serif" font-weight="400" font-size="73" transform="matrix(1 0 0 1 1681.56 1803)">5</text><path d="M0 0 0.000360892 389.764" stroke="#000000" stroke-width="6.875" stroke-linejoin="round" stroke-miterlimit="10" fill="#BBE0E3" fill-rule="evenodd" transform="matrix(-1 0 0 1 1135.5 1506.5)"/><path d="M0 0 0.000360892 389.764" stroke="#000000" stroke-width="6.875" stroke-linejoin="round" stroke-miterlimit="10" fill="#BBE0E3" fill-rule="evenodd" transform="matrix(-1 0 0 1 1663.5 1504.5)"/><path d="M0 0 0.000360892 389.764" stroke="#000000" stroke-width="6.875" stroke-linejoin="round" stroke-miterlimit="10" fill="#BBE0E3" fill-rule="evenodd" transform="matrix(-1 0 0 1 1951.5 1504.5)"/><path d="M0 0 0.000360892 389.764" stroke="#000000" stroke-width="6.875" stroke-linejoin="round" stroke-miterlimit="10" fill="#BBE0E3" fill-rule="evenodd" transform="matrix(-1 0 0 1 2209.5 1504.5)"/><path d="M0 0 0.000360892 389.764" stroke="#000000" stroke-width="6.875" stroke-linejoin="round" stroke-miterlimit="10" fill="#BBE0E3" fill-rule="evenodd" transform="matrix(-1 0 0 1 2473.5 1504.5)"/><path d="M0 0 324.803 0.000360892" stroke="#000000" stroke-width="6.875" stroke-linejoin="round" stroke-miterlimit="10" fill="#BBE0E3" fill-rule="evenodd" transform="matrix(-1 0 0 1 3123.3 1444.5)"/><path d="M0 0 324.803 0.000360892" stroke="#000000" stroke-width="6.875" stroke-linejoin="round" stroke-miterlimit="10" fill="#BBE0E3" fill-rule="evenodd" transform="matrix(-1 0 0 1 3122.3 2062.5)"/><text font-family="Arial,Arial_MSFontService,sans-serif" font-weight="400" font-size="96" transform="matrix(1 0 0 1 493.479 2096)">8        9          10        11        12       13                    7 </text><path d="M0 0 0.000360892 389.764" stroke="#000000" stroke-width="6.875" stroke-linejoin="round" stroke-miterlimit="10" fill="#BBE0E3" fill-rule="evenodd" transform="matrix(-1 0 0 1 531.5 2121.5)"/><path d="M0 0 0.000360892 389.764" stroke="#000000" stroke-width="6.875" stroke-linejoin="round" stroke-miterlimit="10" fill="#BBE0E3" fill-rule="evenodd" transform="matrix(-1 0 0 1 786.5 2114.5)"/><path d="M0 0 0.000360892 389.764" stroke="#000000" stroke-width="6.875" stroke-linejoin="round" stroke-miterlimit="10" fill="#BBE0E3" fill-rule="evenodd" transform="matrix(-1 0 0 1 1465.5 2120.5)"/><path d="M0 0 0.000360892 389.764" stroke="#000000" stroke-width="6.875" stroke-linejoin="round" stroke-miterlimit="10" fill="#BBE0E3" fill-rule="evenodd" transform="matrix(-1 0 0 1 1140.5 2116.5)"/><path d="M2106.5 2121.5 2106.5 2473.54" stroke="#000000" stroke-width="6.875" stroke-linejoin="round" stroke-miterlimit="10" fill="#BBE0E3" fill-rule="evenodd"/><path d="M0 0 0.000360892 389.764" stroke="#000000" stroke-width="6.875" stroke-linejoin="round" stroke-miterlimit="10" fill="#BBE0E3" fill-rule="evenodd" transform="matrix(-1 0 0 1 1781.5 2119.5)"/><text font-family="Arial,Arial_MSFontService,sans-serif" font-weight="700" font-size="73" transform="matrix(6.12323e-17 1 -1 6.12323e-17 3180.05 1557)">Verbindung</text><path d="M2295.5 1222.5 2997.07 1222.5" stroke="#000000" stroke-width="6.875" stroke-linejoin="round" stroke-miterlimit="10" fill="#BBE0E3" fill-rule="evenodd"/><path d="M0 0 0.000360892 223.489" stroke="#000000" stroke-width="6.875" stroke-linejoin="round" stroke-miterlimit="10" fill="#BBE0E3" fill-rule="evenodd" transform="matrix(-1 0 0 1 2995.5 1222.5)"/><path d="M0 0 127.108 0.000360892" stroke="#000000" stroke-width="6.875" stroke-linejoin="round" stroke-miterlimit="10" fill="#BBE0E3" fill-rule="evenodd" transform="matrix(-1 0 0 1 2724.61 1145.5)"/><path d="M0 0 127.108 0.000360892" stroke="#000000" stroke-width="6.875" stroke-linejoin="round" stroke-miterlimit="10" fill="#BBE0E3" fill-rule="evenodd" transform="matrix(-1 0 0 1 2300.61 1141.5)"/><path d="M0 0 127.108 0.000360892" stroke="#000000" stroke-width="6.875" stroke-linejoin="round" stroke-miterlimit="10" fill="#BBE0E3" fill-rule="evenodd" transform="matrix(-1 0 0 1 943.608 1845.5)"/><path d="M0 0 127.108 0.000360892" stroke="#000000" stroke-width="6.875" stroke-linejoin="round" stroke-miterlimit="10" fill="#BBE0E3" fill-rule="evenodd" transform="matrix(-1 0 0 1 1790.61 1847.5)"/><text font-family="Cambria Math,Cambria Math_MSFontService,sans-serif" font-weight="400" font-size="96" transform="matrix(1 0 0 1 940.469 2468)">∑</text><path d="M0 0 127.108 0.000360892" stroke="#000000" stroke-width="6.875" stroke-linejoin="round" stroke-miterlimit="10" fill="#BBE0E3" fill-rule="evenodd" transform="matrix(-1 0 0 1 914.609 2445.5)"/><path d="M2206.5 591.5 2661.22 591.5" stroke="#000000" stroke-width="6.875" stroke-linejoin="round" stroke-miterlimit="10" fill="#BBE0E3" fill-rule="evenodd"/><text font-family="Arial,Arial_MSFontService,sans-serif" font-weight="700" font-size="92" transform="matrix(1 0 0 1 2494.3 479)">HS</text><path d="M0 0 0.000360892 259.843" stroke="#000000" stroke-width="6.875" stroke-linejoin="round" stroke-miterlimit="10" fill="#BBE0E3" fill-rule="evenodd" transform="matrix(-1 0 0 1 2460.5 331.5)"/><text font-family="Arial,Arial_MSFontService,sans-serif" font-weight="700" font-size="92" transform="matrix(1 0 0 1 2385.39 1329)">NS</text><rect x="831.5" y="1521.5" width="151" height="94.0002" stroke="#000000" stroke-width="6.875" stroke-linejoin="round" stroke-miterlimit="10" fill="none"/><text font-family="Arial,Arial_MSFontService,sans-serif" font-weight="700" font-size="50" transform="matrix(1 0 0 1 864.681 1586)">160</text><rect x="289.5" y="927.5" width="151" height="94.0002" stroke="#000000" stroke-width="6.875" stroke-linejoin="round" stroke-miterlimit="10" fill="none"/><text font-family="Arial,Arial_MSFontService,sans-serif" font-weight="700" font-size="50" transform="matrix(1 0 0 1 322.286 992)">160</text><rect x="545.5" y="1518.5" width="151" height="95.0002" stroke="#000000" stroke-width="6.875" stroke-linejoin="round" stroke-miterlimit="10" fill="none"/><text font-family="Arial,Arial_MSFontService,sans-serif" font-weight="700" font-size="50" transform="matrix(1 0 0 1 592.374 1584)">80</text><rect x="1154.5" y="1521.5" width="152" height="94.0002" stroke="#000000" stroke-width="6.875" stroke-linejoin="round" stroke-miterlimit="10" fill="none"/><text font-family="Arial,Arial_MSFontService,sans-serif" font-weight="700" font-size="50" transform="matrix(1 0 0 1 1187.91 1587)">125</text><rect x="1441.5" y="1518.5" width="151" height="94.0002" stroke="#000000" stroke-width="6.875" stroke-linejoin="round" stroke-miterlimit="10" fill="none"/><text font-family="Arial,Arial_MSFontService,sans-serif" font-weight="700" font-size="50" transform="matrix(1 0 0 1 1474.24 1583)">125</text><rect x="1678.5" y="1518.5" width="151" height="95.0002" stroke="#000000" stroke-width="6.875" stroke-linejoin="round" stroke-miterlimit="10" fill="none"/><text font-family="Arial,Arial_MSFontService,sans-serif" font-weight="700" font-size="50" transform="matrix(1 0 0 1 1711.16 1584)">200</text><rect x="1968.5" y="1519.5" width="152" height="94.0002" stroke="#000000" stroke-width="6.875" stroke-linejoin="round" stroke-miterlimit="10" fill="none"/><text font-family="Arial,Arial_MSFontService,sans-serif" font-weight="700" font-size="50" transform="matrix(1 0 0 1 2001.9 1584)">400</text><rect x="2226.5" y="1523.5" width="152" height="94.9999" stroke="#000000" stroke-width="6.875" stroke-linejoin="round" stroke-miterlimit="10" fill="none"/><text font-family="Arial,Arial_MSFontService,sans-serif" font-weight="700" font-size="50" transform="matrix(1 0 0 1 2259.97 1589)">400</text><rect x="2491.5" y="1521.5" width="151" height="94.0002" stroke="#000000" stroke-width="6.875" stroke-linejoin="round" stroke-miterlimit="10" fill="none"/><text font-family="Arial,Arial_MSFontService,sans-serif" font-weight="700" font-size="50" transform="matrix(1 0 0 1 2524.7 1586)">315</text><rect x="547.5" y="2135.5" width="151" height="95.0002" stroke="#000000" stroke-width="6.875" stroke-linejoin="round" stroke-miterlimit="10" fill="none"/><text font-family="Arial,Arial_MSFontService,sans-serif" font-weight="700" font-size="50" transform="matrix(1 0 0 1 580.577 2201)">250</text><rect x="805.5" y="2136.5" width="151" height="94.0002" stroke="#000000" stroke-width="6.875" stroke-linejoin="round" stroke-miterlimit="10" fill="none"/><text font-family="Arial,Arial_MSFontService,sans-serif" font-weight="700" font-size="50" transform="matrix(1 0 0 1 838.419 2201)">250</text><rect x="1155.5" y="2134.5" width="151" height="95.0002" stroke="#000000" stroke-width="6.875" stroke-linejoin="round" stroke-miterlimit="10" fill="none"/><text font-family="Arial,Arial_MSFontService,sans-serif" font-weight="700" font-size="50" transform="matrix(1 0 0 1 1188.06 2200)">355</text><rect x="1798.5" y="2135.5" width="151" height="94.0002" stroke="#000000" stroke-width="6.875" stroke-linejoin="round" stroke-miterlimit="10" fill="none"/><text font-family="Arial,Arial_MSFontService,sans-serif" font-weight="700" font-size="50" transform="matrix(1 0 0 1 1831.1 2200)">400</text><rect x="1485.5" y="2135.5" width="151" height="94.0002" stroke="#000000" stroke-width="6.875" stroke-linejoin="round" stroke-miterlimit="10" fill="none"/><text font-family="Arial,Arial_MSFontService,sans-serif" font-weight="700" font-size="50" transform="matrix(1 0 0 1 1518.31 2200)">400</text><text font-family="Arial,Arial_MSFontService,sans-serif" font-weight="400" font-size="73" transform="matrix(6.12323e-17 1 -1 6.12323e-17 2154.19 2138)">Reserve</text></g></svg>