<svg width="3083" height="2208" xmlns="http://www.w3.org/2000/svg" xmlns:xlink="http://www.w3.org/1999/xlink" xml:space="preserve" overflow="hidden"><g transform="translate(-188 -298)"><text font-family="Arial,Arial_MSFontService,sans-serif" font-weight="700" font-size="128" transform="matrix(1 0 0 1 265.833 475)">Trafo ZEV</text><path d="M2203.5 759C2203.5 707.361 2244.69 665.5 2295.5 665.5 2346.31 665.5 2387.5 707.361 2387.5 759 2387.5 810.639 2346.31 852.5 2295.5 852.5 2244.69 852.5 2203.5 810.639 2203.5 759Z" stroke="#000000" stroke-width="6.875" stroke-linejoin="round" stroke-miterlimit="10" fill="none" fill-rule="evenodd"/><rect x="418.5" y="1309.5" width="2378" height="117" stroke="#000000" stroke-width="6.875" stroke-linejoin="round" stroke-miterlimit="10" fill="none"/><path d="M2295.5 561.5 2295.5 665.437" stroke="#000000" stroke-width="6.875" stroke-linejoin="round" stroke-miterlimit="10" fill="#BBE0E3" fill-rule="evenodd"/><path d="M2600.5 976.5 2600.5 1132.41" stroke="#000000" stroke-width="6.875" stroke-linejoin="round" stroke-miterlimit="10" fill="#BBE0E3" fill-rule="evenodd"/><path d="M2300.5 979.5 2300.5 1135.41" stroke="#000000" stroke-width="6.875" stroke-linejoin="round" stroke-miterlimit="10" fill="#BBE0E3" fill-rule="evenodd"/><path d="M2597.5 564.5 2597.5 668.437" stroke="#000000" stroke-width="6.875" stroke-linejoin="round" stroke-miterlimit="10" fill="#BBE0E3" fill-rule="evenodd"/><text font-family="Arial,Arial_MSFontService,sans-serif" font-weight="400" font-size="83" transform="matrix(1 0 0 1 279.36 607)">∑ = Smart Meter</text><text font-family="Arial,Arial_MSFontService,sans-serif" font-weight="400" font-size="83" transform="matrix(1 0 0 1 279.36 706)">RS = Riedgrabenstrasse</text><text font-family="Arial,Arial_MSFontService,sans-serif" font-weight="400" font-size="83" transform="matrix(1 0 0 1 279.36 805)">HS = Hochspannung</text><text font-family="Arial,Arial_MSFontService,sans-serif" font-weight="400" font-size="83" transform="matrix(1 0 0 1 279.36 904)">NS = Niederspannung</text><text font-family="Arial,Arial_MSFontService,sans-serif" font-weight="400" font-size="83" transform="matrix(1 0 0 1 475.297 1003)">= Sicherung (A)</text><text font-family="Arial,Arial_MSFontService,sans-serif" font-weight="400" font-size="83" transform="matrix(1 0 0 1 279.36 1102)">ZEV bei z.B. Anschluss 12</text><text font-family="Cambria Math,Cambria Math_MSFontService,sans-serif" font-weight="400" font-size="96" transform="matrix(1 0 0 1 2749.95 1088)">∑</text><text font-family="Cambria Math,Cambria Math_MSFontService,sans-serif" font-weight="400" font-size="96" transform="matrix(1 0 0 1 2075.29 1078)">∑</text><text font-family="Arial,Arial_MSFontService,sans-serif" font-weight="700" font-size="83" transform="matrix(1 0 0 1 1824.62 897)">630 kVA</text><path d="M0 0 0.000360892 194.882" stroke="#000000" stroke-width="6.875" stroke-linejoin="round" stroke-miterlimit="10" fill="#BBE0E3" fill-rule="evenodd" transform="matrix(-1 0 0 1 531.5 1423.5)"/><path d="M0 0 0.000360892 194.882" stroke="#000000" stroke-width="6.875" stroke-linejoin="round" stroke-miterlimit="10" fill="#BBE0E3" fill-rule="evenodd" transform="matrix(-1 0 0 1 1405.5 1424.5)"/><path d="M0 0 0.000360892 194.882" stroke="#000000" stroke-width="6.875" stroke-linejoin="round" stroke-miterlimit="10" fill="#BBE0E3" fill-rule="evenodd" transform="matrix(-1 0 0 1 816.5 1425.5)"/><path d="M3122.5 1369.5 3122.5 1720.29" stroke="#000000" stroke-width="6.875" stroke-linejoin="round" stroke-miterlimit="10" fill="#BBE0E3" fill-rule="evenodd"/><text font-family="Cambria Math,Cambria Math_MSFontService,sans-serif" font-weight="400" font-size="96" transform="matrix(1 0 0 1 1896.65 2396)">∑</text><text font-family="Cambria Math,Cambria Math_MSFontService,sans-serif" font-weight="400" font-size="96" transform="matrix(1 0 0 1 2441.8 2377)">∑</text><text font-family="Arial,Arial_MSFontService,sans-serif" font-weight="400" font-size="73" transform="matrix(1 0 0 1 2336 2221)">RS</text><text font-family="Arial,Arial_MSFontService,sans-serif" font-weight="400" font-size="73" transform="matrix(1 0 0 1 2336 2309)">13</text><text font-family="Arial,Arial_MSFontService,sans-serif" font-weight="400" font-size="73" transform="matrix(1 0 0 1 1771.36 2222)">RS</text><text font-family="Arial,Arial_MSFontService,sans-serif" font-weight="400" font-size="73" transform="matrix(1 0 0 1 1771.36 2310)">7/9/11</text><rect x="418.5" y="1661.5" width="2378" height="117" stroke="#000000" stroke-width="6.875" stroke-linejoin="round" stroke-miterlimit="10" fill="none"/><text font-family="Arial,Arial_MSFontService,sans-serif" font-weight="700" font-size="83" transform="matrix(1 0 0 1 2454.7 1871)">Sammelschiene</text><text font-family="Arial,Arial_MSFontService,sans-serif" font-weight="400" font-size="96" transform="matrix(1 0 0 1 460.217 1399)">1a       1b       2a       2b       3        4        5        6      7 </text><text font-family="Arial,Arial_MSFontService,sans-serif" font-weight="400" font-size="73" transform="matrix(1 0 0 1 1290.92 2229)">RS</text><text font-family="Arial,Arial_MSFontService,sans-serif" font-weight="400" font-size="73" transform="matrix(1 0 0 1 1290.92 2317)">5</text><path d="M0 0 0.000360892 194.882" stroke="#000000" stroke-width="6.875" stroke-linejoin="round" stroke-miterlimit="10" fill="#BBE0E3" fill-rule="evenodd" transform="matrix(-1 0 0 1 1116.5 1425.5)"/><path d="M0 0 0.000360892 194.882" stroke="#000000" stroke-width="6.875" stroke-linejoin="round" stroke-miterlimit="10" fill="#BBE0E3" fill-rule="evenodd" transform="matrix(-1 0 0 1 1663.5 1423.5)"/><path d="M0 0 0.000360892 194.882" stroke="#000000" stroke-width="6.875" stroke-linejoin="round" stroke-miterlimit="10" fill="#BBE0E3" fill-rule="evenodd" transform="matrix(-1 0 0 1 1950.5 1423.5)"/><path d="M0 0 0.000360892 194.882" stroke="#000000" stroke-width="6.875" stroke-linejoin="round" stroke-miterlimit="10" fill="#BBE0E3" fill-rule="evenodd" transform="matrix(-1 0 0 1 2208.5 1424.5)"/><path d="M0 0 0.000360892 194.882" stroke="#000000" stroke-width="6.875" stroke-linejoin="round" stroke-miterlimit="10" fill="#BBE0E3" fill-rule="evenodd" transform="matrix(-1 0 0 1 2473.5 1423.5)"/><path d="M0 0 324.803 0.000360892" stroke="#000000" stroke-width="6.875" stroke-linejoin="round" stroke-miterlimit="10" fill="#BBE0E3" fill-rule="evenodd" transform="matrix(-1 0 0 1 3123.3 1364.5)"/><path d="M0 0 324.803 0.000360892" stroke="#000000" stroke-width="6.875" stroke-linejoin="round" stroke-miterlimit="10" fill="#BBE0E3" fill-rule="evenodd" transform="matrix(-1 0 0 1 3121.3 1716.5)"/><text font-family="Arial,Arial_MSFontService,sans-serif" font-weight="400" font-size="96" transform="matrix(1 0 0 1 493.332 1759)">8        9          10        11        12       13                    7 </text><path d="M0 0 0.000360892 194.882" stroke="#000000" stroke-width="6.875" stroke-linejoin="round" stroke-miterlimit="10" fill="#BBE0E3" fill-rule="evenodd" transform="matrix(-1 0 0 1 515.5 1775.5)"/><path d="M0 0 0.000360892 194.882" stroke="#000000" stroke-width="6.875" stroke-linejoin="round" stroke-miterlimit="10" fill="#BBE0E3" fill-rule="evenodd" transform="matrix(-1 0 0 1 780.5 1779.5)"/><path d="M0 0 0.000360892 194.882" stroke="#000000" stroke-width="6.875" stroke-linejoin="round" stroke-miterlimit="10" fill="#BBE0E3" fill-rule="evenodd" transform="matrix(-1 0 0 1 1460.5 1778.5)"/><path d="M0 0 0.000360892 194.882" stroke="#000000" stroke-width="6.875" stroke-linejoin="round" stroke-miterlimit="10" fill="#BBE0E3" fill-rule="evenodd" transform="matrix(-1 0 0 1 1134.5 1781.5)"/><path d="M2101.5 1779.5 2101.5 1974.38" stroke="#000000" stroke-width="6.875" stroke-linejoin="round" stroke-miterlimit="10" fill="#BBE0E3" fill-rule="evenodd"/><path d="M1775.5 1776.5 1775.5 2135.06" stroke="#000000" stroke-width="6.875" stroke-linejoin="round" stroke-miterlimit="10" fill="#BBE0E3" fill-rule="evenodd"/><text font-family="Arial,Arial_MSFontService,sans-serif" font-weight="700" font-size="73" transform="matrix(6.12323e-17 1 -1 6.12323e-17 3177.09 1457)">Verbindung</text><path d="M2295.5 1135.5 2997.07 1135.5" stroke="#000000" stroke-width="6.875" stroke-linejoin="round" stroke-miterlimit="10" fill="#BBE0E3" fill-rule="evenodd"/><path d="M0 0 0.000360892 223.489" stroke="#000000" stroke-width="6.875" stroke-linejoin="round" stroke-miterlimit="10" fill="#BBE0E3" fill-rule="evenodd" transform="matrix(-1 0 0 1 2997.5 1137.5)"/><path d="M0 0 127.108 0.000360892" stroke="#000000" stroke-width="6.875" stroke-linejoin="round" stroke-miterlimit="10" fill="#BBE0E3" fill-rule="evenodd" transform="matrix(-1 0 0 1 2724.61 1057.5)"/><path d="M0 0 127.108 0.000360892" stroke="#000000" stroke-width="6.875" stroke-linejoin="round" stroke-miterlimit="10" fill="#BBE0E3" fill-rule="evenodd" transform="matrix(-1 0 0 1 2295.61 1055.5)"/><path d="M0 0 127.108 0.000360892" stroke="#000000" stroke-width="6.875" stroke-linejoin="round" stroke-miterlimit="10" fill="#BBE0E3" fill-rule="evenodd" transform="matrix(-1 0 0 1 2415.61 2364.5)"/><path d="M0 0 127.108 0.000360892" stroke="#000000" stroke-width="6.875" stroke-linejoin="round" stroke-miterlimit="10" fill="#BBE0E3" fill-rule="evenodd" transform="matrix(-1 0 0 1 1873.61 2375.5)"/><text font-family="Cambria Math,Cambria Math_MSFontService,sans-serif" font-weight="400" font-size="96" transform="matrix(1 0 0 1 1926.7 2036)">∑</text><path d="M0 0 127.108 0.000360892" stroke="#000000" stroke-width="6.875" stroke-linejoin="round" stroke-miterlimit="10" fill="#BBE0E3" fill-rule="evenodd" transform="matrix(-1 0 0 1 1902.61 2016.5)"/><path d="M2206.5 562.5 2661.22 562.5" stroke="#000000" stroke-width="6.875" stroke-linejoin="round" stroke-miterlimit="10" fill="#BBE0E3" fill-rule="evenodd"/><text font-family="Arial,Arial_MSFontService,sans-serif" font-weight="700" font-size="92" transform="matrix(1 0 0 1 2499.34 446)">HS</text><path d="M0 0 0.000360892 259.843" stroke="#000000" stroke-width="6.875" stroke-linejoin="round" stroke-miterlimit="10" fill="#BBE0E3" fill-rule="evenodd" transform="matrix(-1 0 0 1 2460.5 298.5)"/><text font-family="Arial,Arial_MSFontService,sans-serif" font-weight="700" font-size="92" transform="matrix(1 0 0 1 2385.24 1249)">NS</text><rect x="831.5" y="1441.5" width="151" height="94.0002" stroke="#000000" stroke-width="6.875" stroke-linejoin="round" stroke-miterlimit="10" fill="none"/><text font-family="Arial,Arial_MSFontService,sans-serif" font-weight="700" font-size="50" transform="matrix(1 0 0 1 864.535 1506)">160</text><rect x="289.5" y="927.5" width="151" height="94.0002" stroke="#000000" stroke-width="6.875" stroke-linejoin="round" stroke-miterlimit="10" fill="none"/><text font-family="Arial,Arial_MSFontService,sans-serif" font-weight="700" font-size="50" transform="matrix(1 0 0 1 322.286 992)">160</text><rect x="545.5" y="1438.5" width="151" height="93.9999" stroke="#000000" stroke-width="6.875" stroke-linejoin="round" stroke-miterlimit="10" fill="none"/><text font-family="Arial,Arial_MSFontService,sans-serif" font-weight="700" font-size="50" transform="matrix(1 0 0 1 592.228 1504)">80</text><rect x="1140.5" y="1441.5" width="151" height="94.0002" stroke="#000000" stroke-width="6.875" stroke-linejoin="round" stroke-miterlimit="10" fill="none"/><text font-family="Arial,Arial_MSFontService,sans-serif" font-weight="700" font-size="50" transform="matrix(1 0 0 1 1173.25 1506)">125</text><rect x="1430.5" y="1438.5" width="151" height="93.9999" stroke="#000000" stroke-width="6.875" stroke-linejoin="round" stroke-miterlimit="10" fill="none"/><text font-family="Arial,Arial_MSFontService,sans-serif" font-weight="700" font-size="50" transform="matrix(1 0 0 1 1463.22 1503)">125</text><rect x="1674.5" y="1438.5" width="151" height="93.9999" stroke="#000000" stroke-width="6.875" stroke-linejoin="round" stroke-miterlimit="10" fill="none"/><text font-family="Arial,Arial_MSFontService,sans-serif" font-weight="700" font-size="50" transform="matrix(1 0 0 1 1707.39 1503)">200</text><rect x="1968.5" y="1438.5" width="151" height="94.9999" stroke="#000000" stroke-width="6.875" stroke-linejoin="round" stroke-miterlimit="10" fill="none"/><text font-family="Arial,Arial_MSFontService,sans-serif" font-weight="700" font-size="50" transform="matrix(1 0 0 1 2001.75 1504)">400</text><rect x="2226.5" y="1443.5" width="152" height="94.0002" stroke="#000000" stroke-width="6.875" stroke-linejoin="round" stroke-miterlimit="10" fill="none"/><text font-family="Arial,Arial_MSFontService,sans-serif" font-weight="700" font-size="50" transform="matrix(1 0 0 1 2259.83 1508)">400</text><rect x="2491.5" y="1440.5" width="151" height="94.9999" stroke="#000000" stroke-width="6.875" stroke-linejoin="round" stroke-miterlimit="10" fill="none"/><text font-family="Arial,Arial_MSFontService,sans-serif" font-weight="700" font-size="50" transform="matrix(1 0 0 1 2524.55 1506)">315</text><rect x="541.5" y="1800.5" width="152" height="93.9999" stroke="#000000" stroke-width="6.875" stroke-linejoin="round" stroke-miterlimit="10" fill="none"/><text font-family="Arial,Arial_MSFontService,sans-serif" font-weight="700" font-size="50" transform="matrix(1 0 0 1 574.982 1865)">250</text><rect x="803.5" y="1801.5" width="151" height="93.9999" stroke="#000000" stroke-width="6.875" stroke-linejoin="round" stroke-miterlimit="10" fill="none"/><text font-family="Arial,Arial_MSFontService,sans-serif" font-weight="700" font-size="50" transform="matrix(1 0 0 1 836.45 1866)">250</text><rect x="1153.5" y="1799.5" width="151" height="93.9999" stroke="#000000" stroke-width="6.875" stroke-linejoin="round" stroke-miterlimit="10" fill="none"/><text font-family="Arial,Arial_MSFontService,sans-serif" font-weight="700" font-size="50" transform="matrix(1 0 0 1 1186.09 1865)">355</text><rect x="1796.5" y="1803.5" width="250" height="94.9999" stroke="#000000" stroke-width="6.875" stroke-linejoin="round" stroke-miterlimit="10" fill="none"/><text font-family="Arial,Arial_MSFontService,sans-serif" font-weight="700" font-size="50" transform="matrix(1 0 0 1 1836.73 1869)">ca. 700</text><rect x="1483.5" y="1800.5" width="151" height="93.9999" stroke="#000000" stroke-width="6.875" stroke-linejoin="round" stroke-miterlimit="10" fill="none"/><text font-family="Arial,Arial_MSFontService,sans-serif" font-weight="700" font-size="50" transform="matrix(1 0 0 1 1516.34 1865)">400</text><text font-family="Arial,Arial_MSFontService,sans-serif" font-weight="400" font-size="73" transform="matrix(6.12323e-17 1 -1 6.12323e-17 2141.37 1806)">Reserve</text><text font-family="Arial,Arial_MSFontService,sans-serif" font-weight="700" font-size="83" transform="matrix(1 0 0 1 2744.71 901)">630 kVA</text><path d="M2203.5 890C2203.5 838.361 2244.69 796.5 2295.5 796.5 2346.31 796.5 2387.5 838.361 2387.5 890 2387.5 941.639 2346.31 983.5 2295.5 983.5 2244.69 983.5 2203.5 941.639 2203.5 890Z" stroke="#000000" stroke-width="6.875" stroke-linejoin="round" stroke-miterlimit="10" fill="none" fill-rule="evenodd"/><path d="M2505.5 887C2505.5 835.361 2546.47 793.5 2597 793.5 2647.53 793.5 2688.5 835.361 2688.5 887 2688.5 938.638 2647.53 980.5 2597 980.5 2546.47 980.5 2505.5 938.638 2505.5 887Z" stroke="#000000" stroke-width="6.875" stroke-linejoin="round" stroke-miterlimit="10" fill="none" fill-rule="evenodd"/><path d="M2505.5 764.5C2505.5 713.137 2546.47 671.5 2597 671.5 2647.53 671.5 2688.5 713.137 2688.5 764.5 2688.5 815.863 2647.53 857.5 2597 857.5 2546.47 857.5 2505.5 815.863 2505.5 764.5Z" stroke="#000000" stroke-width="6.875" stroke-linejoin="round" stroke-miterlimit="10" fill="none" fill-rule="evenodd"/><path d="M1255.5 2135.5 2294.87 2135.5" stroke="#000000" stroke-width="6.875" stroke-linejoin="round" stroke-miterlimit="10" fill="#BBE0E3" fill-rule="evenodd"/><path d="M0 0 0.000360892 324.803" stroke="#000000" stroke-width="6.875" stroke-linejoin="round" stroke-miterlimit="10" fill="#BBE0E3" fill-rule="evenodd" transform="matrix(-1 0 0 1 2291.5 2135.5)"/><path d="M0 0 0.000360892 324.803" stroke="#000000" stroke-width="6.875" stroke-linejoin="round" stroke-miterlimit="10" fill="#BBE0E3" fill-rule="evenodd" transform="matrix(-1 0 0 1 1742.5 2139.5)"/><path d="M0 0 0.000360892 324.803" stroke="#000000" stroke-width="6.875" stroke-linejoin="round" stroke-miterlimit="10" fill="#BBE0E3" fill-rule="evenodd" transform="matrix(-1 0 0 1 1259.5 2138.5)"/><text font-family="Cambria Math,Cambria Math_MSFontService,sans-serif" font-weight="400" font-size="96" transform="matrix(1 0 0 1 1405.25 2397)">∑</text><path d="M0 0 127.108 0.000360892" stroke="#000000" stroke-width="6.875" stroke-linejoin="round" stroke-miterlimit="10" fill="#BBE0E3" fill-rule="evenodd" transform="matrix(-1 0 0 1 1382.61 2376.5)"/><path d="M981.5 2091.5 2747.15 2091.5" stroke="#000000" stroke-width="6.875" stroke-linejoin="round" stroke-miterlimit="10" stroke-dasharray="27.5 20.625" fill="#BBE0E3" fill-rule="evenodd"/><path d="M982.5 2112.5 982.5 2502.26" stroke="#000000" stroke-width="6.875" stroke-linejoin="round" stroke-miterlimit="10" stroke-dasharray="27.5 20.625" fill="#BBE0E3" fill-rule="evenodd"/><path d="M2733.5 2109.5 2733.5 2499.26" stroke="#000000" stroke-width="6.875" stroke-linejoin="round" stroke-miterlimit="10" stroke-dasharray="27.5 20.625" fill="#BBE0E3" fill-rule="evenodd"/><rect x="682.5" y="2087.5" width="242" height="133" stroke="#000000" stroke-width="6.875" stroke-linejoin="round" stroke-miterlimit="10" stroke-dasharray="27.5 20.625" fill="none"/><text font-family="Arial,Arial_MSFontService,sans-serif" font-weight="700" font-size="83" transform="matrix(1 0 0 1 722.714 2183)">ZEV</text></g></svg>